HIERARCHY
ROOT Pelvis
{
	OFFSET 0.000000 0.000000 0.000000
	CHANNELS 6 Xposition Yposition Zposition Xrotation Yrotation Zrotation
	JOINT LeftUpLeg_virtual
	{
		OFFSET 0.000000 0.000000 0.000000
		CHANNELS 3 Xrotation Yrotation Zrotation
		JOINT LeftUpLeg
		{
			OFFSET 18.735201 -5.666702 -4.541200
			CHANNELS 3 Xrotation Yrotation Zrotation
			JOINT LeftLeg
			{
				OFFSET -0.021200 -31.938179 0.493100
				CHANNELS 3 Xrotation Yrotation Zrotation
				JOINT LeftFoot
				{
					OFFSET 0.021200 -31.938179 -4.336299
					CHANNELS 3 Xrotation Yrotation Zrotation
					JOINT LeftToeBase
					{
						OFFSET 0.943001 -26.722000 15.023500
						CHANNELS 3 Xrotation Yrotation Zrotation
						End Site
						{
							OFFSET 0 0 0
						}
					}
				}
			}
		}
	}
	JOINT RightUpLeg_virtual
	{
		OFFSET 0.000000 0.000000 0.000000
		CHANNELS 3 Xrotation Yrotation Zrotation
		JOINT RightUpLeg
		{
			OFFSET -18.735201 -5.666702 -4.541200
			CHANNELS 3 Xrotation Yrotation Zrotation
			JOINT RightLeg
			{
				OFFSET 0.018946 -31.938133 0.493100
				CHANNELS 3 Xrotation Yrotation Zrotation
				JOINT RightFoot
				{
					OFFSET -0.018946 -31.938126 -4.336299
					CHANNELS 3 Xrotation Yrotation Zrotation
					JOINT RightToeBase
					{
						OFFSET -0.943001 -26.722004 15.023500
						CHANNELS 3 Xrotation Yrotation Zrotation
						End Site
						{
							OFFSET 0 0 0
						}
					}
				}
			}
		}
	}
	JOINT Hips_virtual
	{
		OFFSET 0.000000 0.000000 0.000000
		CHANNELS 3 Xrotation Yrotation Zrotation
		JOINT Hips
		{
			OFFSET -0.000000 -0.000000 -0.000000
			CHANNELS 3 Xrotation Yrotation Zrotation
			JOINT Spine
			{
				OFFSET 0.000000 10.199997 -0.299500
				CHANNELS 3 Xrotation Yrotation Zrotation
				JOINT Spine1
				{
					OFFSET 0.000000 11.900002 -1.516600
					CHANNELS 3 Xrotation Yrotation Zrotation
					JOINT Spine2
					{
						OFFSET 0.000000 13.600006 -2.842500
						CHANNELS 3 Xrotation Yrotation Zrotation
						JOINT Neck_virtual
						{
							OFFSET 0.000000 0.000000 0.000000
							CHANNELS 3 Xrotation Yrotation Zrotation
							JOINT Neck
							{
								OFFSET 0.000000 9.624100 -2.890100
								CHANNELS 3 Xrotation Yrotation Zrotation
								JOINT Head
								{
									OFFSET 0.000000 14.068802 -1.351900
									CHANNELS 3 Xrotation Yrotation Zrotation
									End Site
									{
										OFFSET 0 0 0
									}
								}
							}
						}
						JOINT LeftShoulder_virtual
						{
							OFFSET 0.000000 0.000000 0.000000
							CHANNELS 3 Xrotation Yrotation Zrotation
							JOINT LeftShoulder
							{
								OFFSET 15.263000 10.923401 -0.547700
								CHANNELS 3 Xrotation Yrotation Zrotation
								JOINT LeftArm
								{
									OFFSET 25.438599 -2.830597 -13.032500
									CHANNELS 3 Xrotation Yrotation Zrotation
									JOINT LeftForeArm
									{
										OFFSET 29.960503 0.000000 0.000000
										CHANNELS 3 Xrotation Yrotation Zrotation
										JOINT LeftHand
										{
											OFFSET 27.849251 0.000000 0.000000
											CHANNELS 3 Xrotation Yrotation Zrotation
											End Site
											{
												OFFSET 0 0 0
											}
										}
									}
								}
							}
						}
						JOINT RightShoulder_virtual
						{
							OFFSET 0.000000 0.000000 0.000000
							CHANNELS 3 Xrotation Yrotation Zrotation
							JOINT RightShoulder
							{
								OFFSET -15.263000 10.923401 -0.547700
								CHANNELS 3 Xrotation Yrotation Zrotation
								JOINT RightArm
								{
									OFFSET -25.438599 -2.830597 -13.032500
									CHANNELS 3 Xrotation Yrotation Zrotation
									JOINT RightForeArm
									{
										OFFSET -29.960503 0.000000 0.000000
										CHANNELS 3 Xrotation Yrotation Zrotation
										JOINT RightHand
										{
											OFFSET -27.849251 0.000000 0.000000
											CHANNELS 3 Xrotation Yrotation Zrotation
											End Site
											{
												OFFSET 0 0 0
											}
										}
									}
								}
							}
						}
					}
				}
			}
		}
	}
}
MOTION
Frames: 7
Frame Time: 0.03333333
-7.823435 79.597794 16.554296 0.000000 0.000000 0.000000 10.330980 52.108118 -13.416863 -9.097029 -1.359444 24.761063 54.556901 -5.492416 21.990270 -45.080878 -0.289752 2.076983 0.000000 0.000000 0.000000 9.471335 54.061678 -12.753501 -48.371239 2.689917 -29.516468 34.994006 11.955493 7.697937 -6.201260 4.544356 4.981470 0.000000 0.000000 0.000000 9.763712 53.214229 -13.364185 -0.652832 0.030819 0.021555 0.500177 -2.270128 -0.420724 2.243492 -3.682725 0.426391 0.000000 0.000000 0.000000 -1.138901 -1.496730 -0.417772 -2.311119 -4.897759 2.238821 0.000000 0.000000 0.000000 3.380791 -1.982634 -0.033355 -2.624492 -10.077184 -8.089653 -14.148814 -36.383236 -59.976041 176.505858 -80.662321 175.512899 0.000000 0.000000 0.000000 -1.973408 -1.002327 -0.800839 4.865807 1.506075 7.142646 -39.403904 5.687988 47.961356 79.186864 67.057397 -85.952064 0.000000 0.000000 0.000000 
-7.831310 82.050827 15.782957 0.000000 0.000000 0.000000 10.136575 49.808075 -12.922723 -5.498850 -1.123691 24.699110 48.174957 -8.372091 20.753479 -42.069351 -0.078050 -2.565580 0.000000 0.000000 0.000000 8.838053 51.552806 -11.646464 -47.109621 1.486794 -29.253861 31.754376 9.773819 8.965784 -8.185117 3.293924 5.607415 0.000000 0.000000 0.000000 9.277396 50.491265 -12.679758 -0.649358 -0.046969 -0.000008 -0.046654 -2.504476 -0.353940 2.300075 -3.734687 0.318766 0.000000 0.000000 0.000000 -0.785947 -1.434824 -0.323894 -2.197160 -4.856697 2.205201 0.000000 0.000000 0.000000 3.221015 -2.032969 -0.303878 -2.728579 -10.077798 -6.618636 -16.860942 -35.874216 -58.695190 177.797023 -78.505730 177.265935 0.000000 0.000000 0.000000 -1.901589 -1.009592 -0.903131 4.981394 0.680148 7.348791 -40.338947 6.161812 46.024656 86.104479 68.116452 -92.218762 0.000000 0.000000 0.000000 
-7.437932 86.482582 14.301820 0.000000 0.000000 0.000000 9.230193 45.162341 -11.903336 -2.830989 1.535124 24.381827 39.263534 -9.541089 16.911600 -26.474486 0.256456 -6.966864 0.000000 0.000000 0.000000 7.985673 46.230945 -10.432861 -44.975214 -1.138383 -27.317869 26.435648 6.731984 8.814205 -4.323582 2.994489 8.459373 0.000000 0.000000 0.000000 8.346953 45.364716 -11.383060 -0.665795 -0.061011 -0.001260 -0.286880 -2.228381 0.046252 2.610639 -3.538235 0.188232 0.000000 0.000000 0.000000 -0.224255 -1.153391 -0.263956 -1.991838 -4.638057 2.023002 0.000000 0.000000 0.000000 3.325275 -1.847734 -0.661776 -2.949735 -9.585067 -4.472324 -20.107423 -34.856607 -57.605119 -179.551480 -75.048807 -179.950882 0.000000 0.000000 0.000000 -1.460354 -0.788825 -0.992661 5.143041 0.042173 7.255042 -41.814869 7.772622 43.803318 95.400510 69.023392 -100.457726 0.000000 0.000000 0.000000 
-6.789401 91.670509 12.357738 0.000000 0.000000 0.000000 7.622868 39.178453 -10.488608 -4.125856 5.312395 23.944285 33.886163 -7.482806 12.308211 -3.421190 1.097017 -8.674991 0.000000 0.000000 0.000000 6.884735 39.315723 -9.239224 -43.630726 -1.960859 -23.678174 23.359952 4.656475 6.513249 4.847748 4.487676 12.253721 0.000000 0.000000 0.000000 7.170439 39.027773 -9.861047 -0.679454 -0.033832 0.033828 0.151423 -1.523146 0.692993 3.037180 -3.143640 0.034532 0.000000 0.000000 0.000000 0.488165 -0.708946 -0.283564 -1.725842 -4.279127 1.732698 0.000000 0.000000 0.000000 3.714274 -1.454922 -1.085199 -3.324471 -8.604848 -2.292595 -23.146570 -33.558031 -56.813937 -176.990651 -71.629423 -177.559100 0.000000 0.000000 0.000000 -0.828432 -0.385391 -1.033923 5.334800 0.018832 7.032032 -43.035933 10.327137 41.728235 104.943145 69.513397 -108.620990 0.000000 0.000000 0.000000 
-5.930499 96.507050 10.074038 0.000000 0.000000 0.000000 5.787384 32.567421 -8.953246 -8.332985 8.243393 23.603525 33.213147 -4.895642 8.479267 14.390679 1.194622 -10.191899 0.000000 0.000000 0.000000 5.414801 32.329833 -7.991367 -42.944261 -1.215940 -19.812977 24.565832 3.085538 2.517322 11.911681 5.848768 13.961862 0.000000 0.000000 0.000000 5.908447 32.651617 -8.332663 -0.686888 0.017903 0.054113 1.225420 -0.633408 1.443842 3.404500 -2.615821 -0.130228 0.000000 0.000000 0.000000 1.379647 -0.137769 -0.360084 -1.453979 -3.823158 1.394055 0.000000 0.000000 0.000000 4.209340 -0.927596 -1.511061 -3.797542 -7.390169 -0.448330 -25.819310 -32.075791 -56.371040 -174.873156 -69.546625 -175.691972 0.000000 0.000000 0.000000 -0.170541 0.144166 -1.004979 5.486855 0.722181 6.903829 -43.695128 13.336364 39.823015 112.735353 69.774904 -114.811901 0.000000 0.000000 0.000000 
-5.229464 100.411079 8.114855 0.000000 0.000000 0.000000 4.168231 26.550711 -7.470618 -12.874686 9.734767 23.652156 34.089146 -4.136824 5.270973 22.545561 -1.680655 -13.642673 0.000000 0.000000 0.000000 3.885108 26.428773 -6.863864 -41.696775 -0.993402 -16.979540 29.388378 0.853165 -1.659473 11.464392 5.304790 13.306739 0.000000 0.000000 0.000000 4.594288 26.968275 -6.969067 -0.710149 0.073588 0.009798 2.564160 0.151356 2.156154 3.697524 -2.048931 -0.196406 0.000000 0.000000 0.000000 2.321220 0.472532 -0.463579 -1.220724 -3.318068 1.063150 0.000000 0.000000 0.000000 4.536042 -0.332678 -1.842347 -4.278969 -6.185527 0.667113 -27.434940 -30.632722 -56.258516 -173.249251 -69.275385 -174.225558 0.000000 0.000000 0.000000 0.309477 0.737786 -0.904559 5.534651 1.818955 7.152259 -43.623640 15.945329 38.097904 117.441770 70.271008 -117.830790 0.000000 0.000000 0.000000 
-4.443631 103.107918 6.822092 0.000000 0.000000 0.000000 2.955370 21.619623 -6.238234 -17.380458 11.138984 24.687526 34.998244 -4.600293 2.053343 24.569124 -6.032782 -18.206286 0.000000 0.000000 0.000000 2.623208 21.621018 -6.215251 -40.001799 -1.392622 -15.671985 36.535269 -1.435379 -4.545784 6.861021 4.856767 12.003214 0.000000 0.000000 0.000000 3.340349 22.226730 -6.045426 -0.745084 0.048939 -0.054401 3.774131 0.741435 2.815247 3.904965 -1.497688 -0.100191 0.000000 0.000000 0.000000 3.135655 1.033436 -0.518924 -1.046019 -2.830121 0.773659 0.000000 0.000000 0.000000 4.671808 0.266343 -1.986514 -4.683277 -5.148425 0.952812 -27.480873 -29.590039 -56.572780 -172.021743 -70.417884 -172.937262 0.000000 0.000000 0.000000 0.599690 1.286335 -0.779066 5.531781 2.876236 8.071824 -42.731931 17.620986 36.506569 119.855449 71.078712 -118.627600 0.000000 0.000000 0.000000 
